<?xml version='1.0' encoding='utf-8'?>
<svg xmlns="http://www.w3.org/2000/svg" width="42.29in" height="31.25in" version="1.1" viewBox="0 0 1074.2 793.75"> <g transform="translate(-2450.8 -489.18)"> <g transform="matrix(.35278 0 0 .35278 3159.7 611.87)"> <g transform="translate(227.66 353.13)"> <path d="m-620.44-700.7c-6.7223-0.77416-15.071 0.80925-20.347 1.6184-9.7724 3.05-1.9937 18.084-11.206 22.503-11.017 6.4423-3.6709 21.256-1.5546 31.028 2.0541 9.6168 13.136 7.5029 19.827 11.051-0.37347 8.5898 1.5566 18.174-2.6761 25.986-6.1 1.774-19.577-2.3965-17.803 7.7183-0.80918 10.208 12.26 7.1913 18.578 9.0586 1.2138 9.6479 3.2079 21.287-0.80691 30.125-10.395 0.49796-21.132 0.59229-30.531-4.4495-1.1515 7.9051-0.62556 15.903-0.84341 23.839-2.3031 3.0189-12.975-1.7116-10.112 3.2368 12.293 2.9877 25.147-0.0943 37.534 2.1154 0.37347 6.5979-0.12431 13.165 0.18692 19.763-9.0566 3.4546-19.454 0.46416-29.009 1.1488-2.2096 4.1082 0.43889 13.946-6.8749 12.701-11.08 0.87141-25.678-4.763-33.645 5.6941-8.8075 10.301-3.2998 24.244 0.68385 35.355 3.8903 8.154-8.4937 8.1527-12.82 11.794-2.9255 5.8199-1.9636 13.168-6.0406 18.427-5.1974 2.1786-10.956 2.051-16.371 3.1092-3.9837 5.8198 0.99663 13.291 7.7502 12.824 18.362 1.0582 36.132 6.9104 52.036 16.029 0.37347 1.0582 1.1219 3.1444 1.4953 4.1714-31.651 2.2408-63.833 1.524-95.578-0.21883-1.7428-10.862-0.99324-21.942-1.1488-32.897-1.1826 0.0311-3.5822 0.0928-4.796 0.155-3.3923 10.675-1.4282 22.096-3.4511 32.989-9.4923-0.0934-19.049-0.89981-28.448 0.46958-2.2408 15.188 0.18829 30.871 0.77958 46.214-0.49796 4.575 4.5721 7.7811 8.6802 7.5633 22.564 0.34235 45.128 0.50082 67.691-0.0593 0.2801 6.3801 1.3418 14.44-6.5011 16.307-8.8698 18.953-6.9436 40.677-8.0328 61.031-1.6184-0.0622-4.9154-0.15657-6.5649-0.21882-1.9606-14.316-0.18891-28.883-0.62456-43.324-1.3694-0.0622-4.1059-0.21586-5.4753-0.27811-2.3342 14.223-0.37418 28.757-0.74765 43.105-4.4816 2.5831-9.8968 1.5563-14.721 0.90268-8.1229-10.426 9.8047-19.299 5.0741-30.098-1.525-5.073-2.6448-10.235-4.1076-15.277-6.7224-1.6495-14.286-2.397-20.853-0.0319-4.1704 9.5233-4.9497 20.759-3.6426 31.06 0.90255 6.9402 17.741 7.6863 10.458 15.405-22.439 2.054-45.066 2.6786-67.536 1.3404-14.659-22.035 23.311-40.213 4.8553-61.158-15.935-16.495-44.195 6.538-31.653 25.585 10.457 8.3097 15.156 22.003 10.207 34.794-21.256 2.9255-42.949-0.90189-64.267 1.4634-0.90255 8.5898 2.2729 19.886 11.89 21.846 11.142 0.90258 22.316-0.40636 33.458 0.46503 23.746 17.802 48.83 34.114 73.946 50.048 9.4301 5.9132 18.921 12.012 26.173 20.602 8.7765 12.76 25.987 7.996 39.12 10.672 5.6019 8.652-1.4307 21.073 4.8872 29.569 1.9607 2.9255 6.2571 8.0287 1.4953 10.736-21.381 3.6413-43.574-1.4325-64.737 3.7338-5.073 14.721-7.155 30.937 1.746 44.568-6.1934 14.69-13.196 29.101-19.95 43.511-18.113 2.8633-38.813-1.6799-54.53 10.084-13.538 9.3055-16.12 26.606-21.505 40.953-2.7076 7.127 2.8643 13.352 7.2214 18.331 13.227 12.822 34.111 1.1824 49.237 9.8656 5.9443 3.1745 15.373 6.7565 12.323 15.377-7.5939 35.977-23.838 69.494-36.567 103.85-8.5586 0.34235-17.678 1.7776-25.863-0.92999 2.7076-25.707 1.9273-57.982-23.251-72.765-19.327-7.5627-46.467-6.6288-59.476 11.858-4.2014 4.9173-5.7877 11.886-11.265 15.683 0.8403-80.793 2e-3 -161.62 0.0638-242.41-0.12449-6.0066 0.27973-12.199-1.8054-17.926-10.146-3.8903-9.0897 8.1859-9.0586 14.753 0.6847 98.378 0.031 196.76-0.3419 295.1-10.831 4.2016-23.805-0.80987-35.414-0.74765-6.7535-9.0255-2.2411-22.035-3.4237-32.678-0.8403-11.64 18.268-6.9406 20.415-15.81-5.6331-20.447-35.697-28.852-50.978-14.256-6.878 11.64 5.9145 21.258 15.127 25.927 2.4275 10.519 2.3331 22.659 0.4969 33.458-10.768 7.5315-25.926 0.83632-38.126 4.5088 8.0296 12.698 23.03 20.419 30.312 33.864-12.293 1.3382-24.648 0.24836-36.941 1.0577 0.4046 5.5398 5.5068 8.5599 8.1833 12.979 6.1933 11.515 8.6534 25.362 17.648 35.259 15.904 0.0934 31.837 0.34387 47.709-0.12309 8.652-4.0459 7.6585-15.563 11.051-23.219 4.9483-12.418 6.5354-26.05 12.2-38.095 43.073-2.0852 86.553-2.3961 129.53-1.9604 10.302 19.918 15.308 42.233 24.427 62.649 22.719 1.8051 45.937-2.8633 68.781 0 5.5398 1.9918 13.823 4.0806 13.636 11.457-20.354 2.1474-40.96-0.37397-61.345 1.0577-12.667 2.3342-6.4096 18.485-5.3203 27.231 3.9837 12.605 1.275 29.036 11.452 38.746 17.926 0.4668 35.915 0.3413 53.841-0.2189 7.2826-1.2449 7.7806-10.581 13.289-13.631 4.077 3.4234 2.5545 11.611 8.7167 12.856 45.314 2.9566 91.995-2.1165 136.72 2.863-0.80918 24.431 1.7134 48.862 0.0638 73.23-36.444 8.3097-75.94 3.7333-112.82 10.891-16.713 75.472-28.01 152.03-43.789 227.69-3.299 6.1 1.8385 18.176-7.8095 18.892-28.041-1.8051-56.02-4.4813-84.03-6.6287-7.8117-0.249-5.9148-13.072 1.5546-12.045 28.757 0.062 57.356 3.1137 86.082 4.5453-1.9918-4.0459-3.9175-9.6167-9.1772-10.052-18.206-2.3964-37.378-0.9976-54.963-6.3506-8.5897-22.595-4.7923-49.018-11.11-72.546-52.441-3.7346-105.04-11.513-157.7-6.7199-3.6102 8.4342 1.0253 22.687-6.3507 27.604-10.955-30.936-14.627-64.796-31.215-93.709-5.2908-10.27-18.454-6.9395-27.604-10.021-24.058-6.3489-49.486-1.932-72.578 6.0041-13.352 1.1515-19.392-13.724-31.156-17.178-30.686-12.604-62.524 8.681-93.522 0.091-5.2908-7.0959 1.0281-15.591 3.4557-22.562 6.2556-11.609 10.18-24.527 17.524-35.482 113.47-3.7036 227.1-2.6454 340.63-5.3841 93.242-0.2801 186.49-1.462 279.39-9.3048 0.62245-14.098 0.74849-28.258-0.12309-42.325-143.91-0.529-287.85 0.7177-431.76 1.8692-79.611 3.0811-159.53 1.2108-238.99 4.0119-0.1868 15.188-1.371 30.441-0.064 45.567 10.519 1.8362 24.368-2.2723 32.834 4.2945-3.5479 13.445-11.295 25.302-16.959 37.876-2.023 4.7929-6.9406 10.831-12.76 8.0921-22.377-9.5546-44.041-20.854-66.542-30.066-9.2434-4.4505-15.715 8.9631-8.3702 14.534 23.591 13.476 49.359 23.311 72.296 37.721-13.912 27.543-28.259 55.271-45.407 80.885-20.976 4.3571-42.576 0.3144-63.77 1.0303-10.862 3.8903-12.601 17.116-17.082 26.328-24.867-0.1868-49.176-6.7845-74.074-7.5314-5.2908-0.8715-12.355 0.8088-15.965-4.1395-8.7143-32.492-7.6239-69.963-30.654-96.759-24.369-23.777-61.839-24.491-93.335-18.765-22.097 8.9009-46.342-9.3709-68.065 3.1092-16.868 4.3883-27.826 18.425-42.64 26.61-5.8509 2.7077-5.7892 13.134-13.663 11.858-65.232-7.6872-129.9-19.452-194.61-30.718-5.7576-1.8363-12.042 2.1172-13.194 7.9371 1.7117 7.7494 11.231 8.4318 17.611 9.9567 54.184 9.4301 108.5 18.053 162.09 30.595 9.3367 2.552 20.288 2.3319 27.696 9.4279-4.326 9.2433-14.597 22.1-1.8054 29.911 12.324 8.2786-3.2043 20.571-13.412 17.552-67.629-4.2948-135.04-11.981-202.6-17.21-37.409-1.7428-74.262-9.7425-111.83-7.4083-30.749-2.1786-62.74 8.6217-92.556-1.5865-0.5291-36.475 3.4522-73.606-3.1457-109.58-9.5545-4.7307-14.252 7.9983-14.625 15.436-2.0229 29.317 0.5574 58.731 3.2961 87.924 1.7118 10.768-15.965 5.9738-16.494 15.373 4.5127 4.6683 11.826 1.1534 17.397 3.4876 1.4005 17.366 2.0556 35.169 0.064 52.441-12.387-0.3734-35.231 4.791-32.337 20.57 89.041 116.8 196.38 219.32 276.68 342.87 8.2163 12.542 15.125 25.958 24.4 37.785 8.9632 1.4005 18.115 0.4349 27.171 0.6839 863.18-0.9648 1726.4 0.2182 2589.6-0.5289 5.602 0 12.447 0.6835 15.715-5.0741 44.878-66.041 74.537-140.74 107.31-213.13 6.4734-11.111 2.9918-24.151 1.778-36.102-0.1245-6.6913-8.8393-3.8568-12.947-4.5726-95.048 0.2178-190.1-0.1852-285.14 0.064-17.74-50.916-27.794-104.45-42.64-156.33-47.119-5.1663-95.824 0.5324-142.66-3.638-6.8158-19.296-0.3449-41.459-8.001-60.848-32.46-2.7076-66.131 6.0408-98.063 1.5591-11.235-27.294-18.052-56.207-27.887-84.03-3.2056-9.7723-7.8127-20.322-4.8872-30.686 5.6331-0.2801 11.669 1.0892 16.991-1.6184-1.3693-13.196 2.7721-28.014-2.4253-40.182-12.729-2.023-25.708 0.3154-38.468-1.0851-3.2989-3.8279-1.989-9.462-2.5803-14.037-0.5913-64.921-0.033-129.87-0.6246-194.79 1.1515-5.0418-9.5838-8.9958-8.1833-1.4953-0.9648 56.082-0.095 112.23-0.4376 168.34-0.7159 14.161 0.7477 28.666-3.0181 42.485-11.546-0.3113-23.312 0.9632-34.703-0.7796-2.7699-9.0565-2.0524-19.263-1.3677-28.662 8.2162-1.276 18.39 2.3649 25.361-2.708 4.575-18.58 2.9903-38.469-4.3857-56.084-3.5791-14.627-14.192-31.247-31.06-30.718-12.604 0.62245-28.51-3.7643-37.443 7.7821-18.082 18.393-17.148 46.123-20.105 69.993-3.6102 3.299-9.1814 0.6545-13.476 0.9346-3.7969-12.822-3.0185-26.486-4.2945-39.713-0.5913-109.67 0.093-219.38-0.3738-329.09-4.8551-4.0459-11.138-2e-3 -10.267 6.0041-0.529 98.564 0.775 197.19-0.8433 295.72-8.8699-3.299-14.004-14.377-24.026-16.991-16.152-3.7969-36.538-7.967-49.734 5.0422-18.736 16.619-18.61 43.849-17.739 66.88 1.525 7.6873-11.765 8.6235-12.947 1.9011-1.1826-6.5046-1.0261-13.166-2.1154-19.64-5.5709-2.8322-11.764-4.169-17.21-7.1256-2.8631-33.363-10.086-66.135-14.475-99.28-0.4046-103.48 0.2182-207.03-0.3419-310.51 1.9607-7.4382-11.296-7.6555-9.8017-0.15499-1.3383 103.54 1.0901 207.27-1.3996 310.76-7.4383-1.1514-17.337-0.0623-22.535-6.0999-0.4357-14.41 0.3719-28.785-0.064-43.132 0.4357-5.2286-5.2871-7.4411-9.3641-8.3748-36.786-8.2163-75.005-4.3855-112.04-2.5804-6.4112 13.663-1.6205 30.063-2.9588 44.846 10.768 33.052-12.976 65.854-5.5072 99.59 23.404 1.2449 47.367-2.927 70.864 0.8389 0.093 3.4545 0.093 6.9132 0 10.399-23.435 0.4046-46.9 0.3695-70.335 0.5562-4.2949-0.031-4.8251-5.5683-8.1241-7.4356-4.9484-56.269-1.2747-112.98-3.3599-169.37-0.1245-79.953-0.2508-159.91-0.2508-239.83-0.2178-4.1704 0.4387-10.083-4.7276-11.452-5.6953 0.15561-5.1077 7.3416-5.3567 11.356-0.43571 132.89-0.55802 265.76-0.0912 398.65-0.34235 5.0106 1.3708 12.667-5.5072 13.663-10.706 2.3653-10.956 15.435-19.079 20.415-5.2597-106.72-1.4344-213.69-2.8038-320.5-0.84031-14.254 1.6197-28.881-1.7415-42.886-5.6954-1.5872-9.7398 2.9277-8.5571 8.5298-0.59133 97.257-0.50045 194.55-0.99841 291.8-7.0025 3.4545-15.935 2.2719-23.374 0.71576-6.7224-16.682 18.459-16.06 17.556-31.092 3.33-15.717-12.856-31.624-28.48-26.177-19.42 5.851-20.352 37.005-1.5227 44.536 8.8076 16.09-18.579 11.393-27.417 9.0586-3.2678-103.01-0.99809-206.19-2.243-309.23-0.59132-7.127-11.296-5.3823-8.931 1.8692-0.62245 101.21-0.24898 202.45-0.71575 303.66-3.2367 5.7265-15.502 4.1994-20.233 0.99383 0.0311-17.895-4.7918-35.135-7.4995-52.688 3.4857-3.5791 8.4962-4.7631 12.915-6.8794 0.6847-15.157 1.1856-30.781-2.3934-45.626-9.8347-2.9566-20.482-0.40409-30.317-3.3918-0.65357-9.2433 0.99781-18.676-1.1808-27.764-6.349-2.8321-15.561 0.90563-20.447-3.825 3.2678-7.9984 17.491-10.335 16.9-20.916-3.1434-23.248-39.154-25.985-50.7-8.5252-5.2908 10.955 4.0465 21.098 14.566 23.027 7.0647 0.0311 9.4317 10.024 4.0164 13.946-9.181 6.5044-3.4273 18.55-3.9252 27.7-5.1663 0.99588-10.425-0.2216-15.405-1.4042 3.3611-25.987-6.9066-51.474-19.822-73.695 10.177-11.142 23.434-18.801 36.038-26.861 3.2366-1.5561 8.0914-6.0039 4.2945-9.5829-10.862-1.027-22.254 1.7434-32.742-1.7734 0.24898-11.048 12.606-15.752 19.64-22.412 9.7723-5.2908 17.96-16.308 29.35-16.868 2.1474 10.55 3.1429 21.291 5.0103 31.903 1.7117 0.40459 5.1959 1.1812 6.9387 1.5546 0.28011-13.32-1.2464-26.641-3.8295-39.681-3.8903-18.144 26.301-8.7161 31.872-21.974-20.416-3.8592-41.333-1.2724-61.874-3.2642-0.37346-6.0066-0.0924-13.604 7.2214-14.848 33.114-10.737 62.898-29.192 94.767-42.699 6.5357-10.084-17.614-3.7349-15.56-14.192 0.0311-19.607-0.59018-39.276 0.40574-58.883 4.9173-4.077 12.357-1.8957 18.363-2.5804 1.9607 20.51 0.99457 41.202 1.7415 61.774 0.77806 3.4234-1.5584 9.6206 3.1411 10.928 11.111 0.71578 22.253 1.2133 33.426 1.0577 2.7699-24.058-0.84102-48.707 1.5865-72.733 6.598-4.4194 15.129-1.7137 22.567-2.7718-0.87142-3.2368 0.5884-9.2122-3.7064-10.052-44.131-4.9173-88.791 2.8931-132.98-2.0242 7.1582-7.9051 18.391-10.052 26.483-16.868 14.223-13.6 33.77-19.418 48.398-32.583 12.698-12.107 32.864 1.8971 45.904-9.9294 6.0689-3.3612 6.2239-10.8 6.4418-16.9-21.163-3.8902-43.041 1.3725-64.39-1.4908-2.8321-4.326-2.2402-9.8355-2.4892-14.753-0.80919-12.667 14.065-20.698 10.517-33.832 0.49796-10.955-10.8-18.39-20.853-17.301-12.636 0.71582-19.669 15.871-16.868 27.044 1.6806 8.6831 12.417 12.418 12.542 21.723-0.24898 5.3842 3.052 13.787-2.6122 17.055-23.03 0.5602-46.155 0.18674-69.155-0.90267-4.3882-4.3259-2.1162-12.606 3.2368-15.313 1.7429-7.5315 0.99866-15.499 0.46958-23.155-2.3342-11.92-21.819-14.19-26.829-3.1411-3.8903 8.2785-2.5194 17.799-2.2704 26.638 3.8903 3.1122 12.478 3.053 10.517 9.9932-0.31122 9.2434-13.101 4.5115-19.17 4.9784-3.7347-13.383-2.0546-27.823-2.8949-41.641 1.0582-4.824-3.6417-6.2228-7.3763-6.036-1.2449 15.281 0.87105 30.591-0.37384 45.872-3.3923 5.1351-11.951 1.5274-17.397 1.7142-5.2597-14.067-0.9352-29.538-3.1138-44.103 0.21786-4.1393-7.1885-4.4195-6.9706-0.18692-1.1826 14.161 1.3685 28.541-0.93457 42.608 0.15561 4.5438-8.5579 3.2695-8.5891-0.65192-3.7969-15.125-0.0311-30.971-3.3599-46.127-1.525-8.9944-1.87-18.331-0.28266-27.294 34.359-2.8944 69.001-0.2468 103.33-2.4254 2.303-10.333 0.80824-21.041 1.3996-31.498-8.0917-1.2137-16.276-0.37045-24.368-0.77504-2.7387-7.9983 3.206-12.95 7.3764-18.459-13.974-6.9714-6.6613-24.21-8.124-36.658-1.8673-0.0934-5.572-0.22119-7.4083-0.31457-0.65357 10.146 0.53094 20.42-1.1808 30.504-20.385 0.99591-41.081 4.3527-61.559 2.5165-12.293-6.2868 1.4292-24.368-7.814-32.305-7.8428-0.87142-16.056 1.1213-23.588-1.3996-4.7306-13.694 14.315-8.839 22.22-11.142 10.55-1.0582 7.8117-13.88 7.0025-21.163-10.239-2.023-20.696 0.21767-31.028-0.18692-4.2638-11.08-1.6819-23.995-1.3084-35.697 14.97-2.3653 30.281 0.0951 45.375-1.3677 5.1352-1.6806 2.8967-8.9632 3.1457-13.102-12.387-8.3097-27.947 3.4833-41.796-1.7142-0.52908-7.0959-0.52914-14.222-0.18692-21.318 9.5546-2.9255 19.855-0.65606 29.752-0.99841 1.6495-3.9836 0.21599-6.0673-4.3902-6.223-2.3653-6.2867-0.71529-13.291-1.7734-19.827-9.8346 1.0582-19.699 1.3403-29.565 1.3403-1.7428-10.115-1.2438-20.477-0.4969-30.654 6.4111-1.9918 19.794 2.4257 17.584-8.8717 2.4276-11.671-13.351-4.3267-19.015-8.466-2.2097-9.1811-1.6825-18.889-1.1534-28.256 5.1352-1.3071 10.8-0.78116 15.655-3.1776 5.851-10.333 5.3223-22.84 5.0422-34.324-3.4546-3.9214-9.3362-6.9713-8.0602-13.102 1.2293-8.6364-3.868-11.772-10.59-12.546zm-36.28 203.36c6.4112 0 12.851 0.0947 19.293 0.59267 3.1122 9.15 0.90582 19.699 1.0303 29.378-0.0311 11.235-13.946 7.4365-21.135 6.7518-0.59123-12.2-1.3048-24.647 0.81152-36.722zm90.258 107.67c5.3492 0.29566 10.595 1.299 15.341 3.711 0.96479 7.3138 0.80756 14.724-0.0638 22.038-12.2-4.3259-23.84-14.256-31.247-25.211 5.1662-0.42016 10.621-0.83362 15.97-0.53795zm-175.82 0.30543c6.2644 1.7302 7.5835 9.842 6.1363 17.848-4.6995 0.46674-9.4006 0.56135-14.069 0.40574-0.37347-5.851-0.46397-11.765-0.0593-17.616 3.2678-1.0815 5.9037-1.215 7.9918-0.63826zm-33.294 0.51517c5.104-0.24898 10.205-0.22084 15.309 0.0593 1.8362 5.6332 1.7461 12.075 0.12767 17.739-5.1663 0.24898-10.333 0.22084-15.469-0.0593-1.3071-5.851-1.182-11.919 0.0319-17.739zm-12.947 0.12309c1.2138 5.851 1.1198 11.921 0.15499 17.835-6.2555-0.0311-12.513 0.2135-18.737 0.36927-0.80918-5.9132-2.1758-12.479 0.46957-18.081 6.0065 0.0311 12.075 0.0328 18.113-0.12309zm93.326 0.11854c3.7891-0.0187 7.5708 0.19296 11.274 0.97105 0.65357 5.3219 0.778 10.704 0.71575 16.088-8.7764 0.52908-17.614 0.56079-26.36 0.0319 1.276-5.1041-2.3654-14.472 3.0499-16.681 3.7347-0.14005 7.5307-0.39083 11.32-0.41029zm103.21 11.489c9.1811 0.24898 14.97 10.55 22.968 14.689 2.3964 2.6143 10.148 5.0131 7.0983 9.4324-9.7724-0.12449-19.545-0.12508-29.287 0.15502-0.43572-8.0918-0.59285-16.185-0.77959-24.276zm-163.81 11.712c6.6368-0.0778 13.241 0.39588 19.59 1.9831 0.0311 1.8985 0.12844 5.6321 0.15956 7.4995-13.04 2.1474-26.332 0.37515-39.435 0.25076 0-2.0852-0.06-6.2858-0.0912-8.4021 6.4734-0.62245 13.14-1.2534 19.777-1.3312zm50.039 0.35557c7.5705 0.0156 15.146 0.55305 22.553 1.5956-0.0311 1.8673-0.06 5.6048-0.0911 7.4721-14.69 2.6765-30.221 1.9273-44.942 0.0912-0.0311-1.9295-0.0319-5.7286-0.0319-7.6271 7.376-1.0426 14.942-1.5474 22.512-1.5318zm51.498 47.253c1.7428 12.013-0.74585 24.648-3.5469 36.412-28.944 0.71582-57.795 2.9874-86.738 3.5788 2.6765-12.449 2.8956-29.657 10.458-38.496 26.61 0.18674 53.249-2.5535 79.827-1.4953zm197.37 81.286c5.637 1.0081 8.347 7.5584 3.3052 13.604-10.115 6.1621-20.009 14.565-31.835 16.681 0.12449-8.403-2.9581-18.172 0.83884-25.703 6.9713-1.7117 14.131-2.6481 21.258-3.5195 2.3497-1.1204 4.5537-1.3983 6.4327-1.0622zm-361.67 4.1441c8.1852 1.4939 17.213-1.6502 24.869 0.87074 3.7969 11.733 0.3421 25.335-1.8054 37.411-20.883 1.8985-30.875-21.724-23.064-38.281zm44.131 0c10.582-0.40459 21.131 1.2154 31.744 0.25072 15.872-3.6724 11.55 19.109 8.9356 28.165-7.6561 4.077-17.212 0.77743-25.553 2.4892-6.5979 9.399-0.0952 21.318-2.5849 31.402-7.5316 0-18.267 3.5191-23.807-1.5227 2.6143-19.514 5.385-39.03 7.0344-58.637 1.0582-0.52908 3.1726-1.6182 4.2307-2.1472zm262.96 0.38293c4.0926-0.25676 8.1237 0.0387 11.703 1.8281 0.15561 8.8076 0.2773 17.643-0.46958 26.451-0.34234 9.6479-11.295 14.658-19.48 15.965-1.2138-14.129-6.1014-28.815-3.8295-42.758 3.8281-0.42015 7.984-1.2294 12.077-1.4862zm-51.165 0.33736c7.7105 0.0125 15.405 0.41409 22.968 1.55 3.9837 15.686 6.3809 32.276 8.6529 48.366-13.414 8.8387-29.539 17.521-45.225 22.065-3.299-19.327-5.5353-38.872-10.235-57.981-0.84031-4.2949-3.3332-9.7079 0.77501-13.194 7.625-0.43571 15.353-0.81861 23.064-0.80694zm-44.846 1.085c1.9918 0.18674 6.0046 0.59285 7.9964 0.77959 3.3611 24.555 8.7741 48.797 12.291 73.321-0.0311 4.7928-8.0873 6.5041-8.6164 1.0577-4.9173-16.339-4.5137-33.736-8.6529-50.262-1.7428-8.1541-5.5389-16.524-3.018-24.896zm118.67 48.083c4.2015-2.023 1.7108 6.8799 4.4495 8.8717 6.0689 1.9918 12.695 1.3373 18.92 2.8311 0.90254 23.466 1.0927 46.997 1.933 70.463-0.37347 4.2638 5.3835 5.4117 5.5391 9.551-10.862 5.8199-22.625 12.48-34.981 13.102-0.0311-6.598-4.2673-15.495 1.8327-20.506 16.277-12.262 2.5552-41.923-16.927-40.274-11.702-0.74694-26.705 6.1625-25.772 19.763-2.7076 14.223 10.397 23.374 21.071 29.505 1.4628 6.4734 3.3619 12.976 3.7976 19.667-19.918 9.7413-41.174 16.213-61.559 24.709-4.7928 1.5561-4.7966-5.6308-5.3568-8.5252-4.2015-20.852-8.1818-41.735-12.072-62.649-2.1162-11.422 11.173-15.219 18.487-20.479 27.139-14.845 52.473-33.116 80.639-46.032zm90.035 11.767c6.8469-0.43571 13.728-0.4039 20.575 0.0319 0.74693 21.319 0.21505 42.727 0.24617 64.108-6.7847 0.52909-13.66 1.0898-20.351-0.15502 0.34235-21.225-4.1109-43.319-0.46957-63.985zm-38.623 0.15502c2.2719 22.066 0.0964 44.411-0.0593 66.602-6.0377 0.87142-12.172 1.7114-18.272 1.2446-1.1515-19.763-1.3998-39.618-1.5865-59.412-1.4939-4.5439 1.4636-8.4989 6.3187-8.0009 4.5126-0.31122 9.0244-0.4331 13.599-0.4331zm-316.37 71.484c13.188-0.26049 26.37-0.37085 39.503 0.28265 3.548 5.2597 3.0491 18.456-5.6029 17.958-25.831 1.4005-51.85 0.4053-77.744 0.74765-6.5046 1.2138-13.133-5.2589-10.549-11.639 2.023-6.1621 9.491-6.2887 14.844-6.7244 13.165 0.0467 26.361-0.36391 39.549-0.62456zm33.809 52.569c-1.0581 21.101-10.894 41.361-14.94 62.275-0.96479 10.021-12.23 6.9092-18.983 7.0025-27.014 0.74694-53.998 0.65366-81.012 0.90264-19.825-0.0934-39.681 3.4549-59.412 1.0896 1.1204-10.519 7.471-29.316 21.071-27.231 4.4194 6.3801 3.7637 17.332 13.381 18.546 10.613 0 24.741 3.4867 32.428-5.881 6.9403-17.086 8.7468-36.506 19.266-52.036 14.347-5.5709 30.78-1.5877 45.968-3.6107 14.067 0.12449 28.198-1.9602 42.234-1.0577zm199.18 24.026c5.353 0.46684 10.051 7.0355 4.9784 11.206-12.107 11.858-27.761 19.481-41.641 29.036-7.1893-10.893-6.13-26.017-8.931-38.746 15.25 0.74684 30.375-3.0203 45.594-1.4953zm-239.92 16.59c-15.063 0.18673-30.097 0.40139-45.129 0.58812-3.548 5.5087-5.4125 14.876-0.24617 19.918 12.511 0.6536 25.33 0.52939 37.716-1.2446 4.9485-5.0418 6.0096-12.664 7.659-19.262zm170.68 75.186c3.4156 0.1441 6.7628 0.7493 9.7971 2.4299 2.1163 4.2015-3.5504 6.4451-5.6668 9.0905-15.343 13.663-15.498 35.757-20.789 53.932-8.5275 4.9796-21.912 3.6422-31.498 0.93457-8.9944-26.61 8.3111-62.4 37.94-66.041 3.3145-0.17117 6.8009-0.49039 10.217-0.34645zm-205.88 3.7611c9.7918-0.0389 19.557 0.49195 28.94 2.0014 3.2989 9.0877 1.9602 20.229-0.56076 29.597-12.885 5.9444-32.992-3.6108-42.453 10.207-6.5356 19.763-5.6317 41.207-10.176 61.436-10.395 2.6454-21.507 3.0791-32.213 2.6123-5.4775 0-10.799-5.1638-7.5314-10.672 11.079-31.434 20.729-63.584 34.89-93.773 9.4922-0.7625 19.312-1.3698 29.104-1.4087zm-381 20.552c-3.9837 2.4587-2.2108 7.9348-2.7399 11.794-0.093 45.905 0.7152 91.842 0.155 137.72-7.1582 0.43572-14.378-0.12667-21.504 0.80694-8.0296 3.1433-8.8376 15.531-0.3101 18.518 10.768 0.5602 21.972 1.6193 32.305-2.1154-1.3383-50.574-3.8302-101.18-2.9587-151.81-0.7781-4.9485 2.1805-13.943-4.9465-14.908zm210.71 19.79c2.766-0.0856 4.9835 0.87248 4.3766 4.1714-2.3341 14.285-1.8364 28.787-1.8053 43.228-7.5627 5.1974-17.804 2.0534-26.487 3.205 0.40459-16.775 3.519-36.503 16.248-48.516 1.5872-0.87143 4.9022-2.0024 7.6681-2.088zm184.38 9.592c4.077 0.19825 8.2074 0.88132 12.113 1.2081 0.90255 4.3883-4.7009 5.757-6.8794 8.589-11.08 10.364-11.017 26.829-15.063 40.461-1.8362 4.6684-6.6286 2.8329-9.6786 0.74768-1.4939-12.138 1.1209-24.214 1.9922-36.289 0.65357-4.6684 0.55973-10.864 5.726-13.011 3.688-1.6184 7.7125-1.9034 11.789-1.705zm172.27 21.737c4.2988 0.17522 7.622 2.0188 7.0618 7.8231-0.68469 7.3138 4.2927 23.31-8.3428 20.821-12.698 1.9607-19.7-19.231-11.639-26.451 3.3456-0.87143 8.6213-2.3679 12.92-2.1929zm410.28 9.4553c3.1774-0.76153 7.4661 1.4426 10.057 2.9132 1.0893 13.694 0.2169 27.479 0.6839 41.204-1.6184 4.824-8.7143 2.5235-11.671 0.28266-2.0541-14.036-1.7735-28.351-1.7735-42.512 0.7081-1.0504 1.6444-1.6336 2.7035-1.8874zm-45.662 0.0182c9.967-0.0467 19.944 0.2661 29.856 0.77955 0.1245 5.7265 2.926 13.134-1.0576 17.958-20.261 0.21785-40.523-0.0311-60.752 0.71575 0.6225-6.0376 1.1825-12.11 2.1473-18.085 9.8813-0.91811 19.84-1.321 29.806-1.3677zm66.205 3.7657c2.4898 0.0311 7.5043 0.0638 10.025 0.0638 0.8092 14.814 0.5298 29.69 0.032 44.504-5.0729 2.5209-12.111-0.27917-10.586-6.7837 0-12.573-0.6539-25.242 0.5288-37.784zm-483.76 14.256c9.0566-0.43571 18.643 1.1507 26.766 5.3522-2.3964 8.5898-11.705 13.318-15.719 21.286-7.9051 9.1189-8.59 22.907-15.81 31.653-10.395-0.71572-23.185 4.6072-32.086-1.9284-10.582-24.493 11.485-53.997 36.85-56.362zm417.59 9.9066c8.7375 0.0896 17.499 0.41131 26.182 0.1778 8.9943-0.96479 4.5446 10.488 5.416 15.81-20.416 2.5208-41.331 1.2414-61.778 1.1169-1.5562-5.4153-1.2758-12.758 4.1395-15.902 8.5898-1.1515 17.303-1.293 26.041-1.2036zm-883.98 44.194c-3.5051-0.075-6.9712 0.37294-10.157 1.4817-12.293 6.0689-10.302 29.069 2.1473 34.329 7.5315-0.87143 15.434-0.7766 22.717-3.173 2.3965-8.8699 7.0349-19.98 2.0242-28.539-4.9407-2.3925-10.89-3.9733-16.731-4.0985zm231.21 1.0121c-5.8208 0.0504-12.138 1.3505-17.443 0.7203-3.0811 9.3989-5.0118 21.288-0.40574 30.344 8.9632 1.276 18.299 1.4301 27.262-0.0638 5.2908-7.5316 1.8061-18.488 2.553-27.358-3.2134-2.9683-7.44-3.6818-11.967-3.6426zm-64.614 0.44676c-3.7944-0.0156-7.845 0.86365-11.434 0.58355-5.1352 0.65357-10.83-0.21599-15.405 2.5849-1.5561 9.0877-4.8563 17.74-6.6926 26.766 10.426 4.5439 24.181 1.8644 35.136-0.65649 1.9917-8.901 4.2055-17.768 6.4463-26.638-2.3011-2.0696-5.0999-2.6267-8.0511-2.6396zm295.38 7.0937c6.0493-0.24525 11.971 0.47499 16.95 3.2916 1.2449 10.426 0.43646 21.01 0.74769 31.53-11.515 3.548-24.274-2.3042-36.225-2.7399-0.93367-9.1188-5.6043-22.842 0.80694-29.565 5.4931-1.0582 11.671-2.2714 17.721-2.5165zm154.05 29.934c11.131 0.88845 24.195 7.1182 16.585 17.552-7.0025 8.8076-7.6891 21.601-15.158 29.537-10.924-0.2801-22.746 2.2398-33.048-1.8373-0.21785-16.868 6.813-35.572 21.97-44.317 2.4431-0.93367 5.9409-1.2307 9.6513-0.9346zm472.64 6.264c2.054 0.27232 3.9787 1.1282 5.457 2.9177 1.8051 16.401-2.0539 32.805-3.7657 49.082-8.4652 3.2056-18.053 3.8567-27.016 2.9542-0.3424-18.487-2.084-46.558 19.079-54.37 2.0074-0.54464 4.1918-0.85586 6.2458-0.58354zm-829.01 2.1245c-5.8442-0.0685-11.718 1.1104-17.484 1.974-7.158 0.93367-7.2175 9.7743-5.6303 15.159 3.7658 14.876 6.4412 30.094 11.265 44.659 7.874 8.3719 21.849 5.5384 31.466 1.7415 4.2015-10.768-1.586-21.907-3.3599-32.551-2.9878-10.208-3.6417-21.944-10.426-30.44-1.9374-0.35791-3.8828-0.51965-5.8309-0.5425zm-51.142 0.38751c-4.396 0.0622-8.773 0.51339-13.052 1.4315-11.36 1.3383-7.3773 14.786-5.9768 22.38 3.7968 13.009 4.2965 27.201 10.116 39.494 9.0566 7.3138 26.205 6.0972 34.11-2.088 1.4628-20.572-6.4116-40.801-12.045-60.315-4.3416-0.63801-8.7565-0.96492-13.153-0.90267zm-44.714 0.77958c-3.01-0.0507-6.054 0.29473-8.6118 0.68382-4.6995 0.90255-12.291 1.0599-11.233 7.969 2.3653 17.086 3.949 34.45 8.8352 51.069 5.0418 11.858 21.663 6.9713 31.124 3.7657 5.1351-17.46-2.4898-36.383-6.2868-53.718-0.7489-7.6386-7.2054-9.6582-13.827-9.7698zm-49.018 1.158c-5.4231 0.0545-10.901 0.95848-16.052 2.0789-1.7118 20.572 1.4975 42.481 7.6909 62.275 10.8 2.3965 22.965 2.2089 33.267-2.366 4.077-12.418-1.5234-25.335-2.9861-37.753-2.0229-7.0337-1.0604-15.558-6.1956-21.222-4.9329-2.2719-10.301-3.0679-15.724-3.0135zm-49.424 1.5546c-6.4617 0.0389-12.921 0.32295-19.348 0.7431-7.0959 4.2326-2.242 15.529-2.7399 22.594 3.4857 12.885 0.2832 28.008 6.9432 39.585 12.729 1.9607 26.423 1.6517 39.307 0.096 4.1393-20.385-2.0261-41.922-4.796-62.307-6.4423-0.54464-12.905-0.75008-19.366-0.71117zm-151.08 0.0182c-6.9392 0.0937-14.456 1.54-20.793 0.75223-0.8714 0.71582-2.6161 2.1799-3.4875 2.9268 1.6495 18.673 9.0261 36.881 9.1817 55.523-25.738 1.3694-51.601 0.1568-77.402 0.5926-0.1867 3.4857-0.1867 6.968 0 10.454 31.527 0.9958 63.085-0.2795 94.612-0.155 8.4963-20.852 9.212-44.067 12.2-66.164-3.8669-3.2542-8.9133-4.0026-14.31-3.9298zm96.431 0.34191c-4.8201 0-9.6362 0.14566-14.429 0.41032-9.3367 10.955-4.0772 28.726-7.1895 42.389 0.093 6.7847-4.9155 21.911 6.5376 20.853 12.604-0.4669 25.582 1.3685 38.031-0.9346 3.7036-14.534-1.2167-29.659-2.2749-44.317-1.2449-6.0378-0.2163-14.347-6.2229-17.926-4.8085-0.32678-9.6318-0.47415-14.452-0.47415zm-48.48 0.96651c-7.5429-6e-3 -15.093 0.77193-22.375 2.5576-2.3342 19.763-10.238 40.491-6.4099 60.192 13.071 0.5602 26.173 0.5598 39.275 0.342 5.9443-2.1164 4.6703-9.8051 5.106-14.785 0.093-15.654 4.5411-31.463 1.8646-46.962-5.7324-0.85783-11.594-1.3393-17.461-1.3449zm1250.4 1.2993c2.9255 0.38903 4.7439 1.943 2.4253 5.9266-11.017 17.895-7.6572 39.495-8.124 59.476-4.824 7.0336-15.155 2.2712-22.188 2.3023-0.031-16.028 2.924-31.931 3.8888-47.928 1.774-7.7494 6.2566-17.211 14.94-18.705 2.1008-0.68469 6.1332-1.4604 9.0587-1.0714zm-350.19 36.321c15.075-0.1127 30.152 0.1528 45.184 0.6975 1.1515 37.222-2.7037 74.598-4.5088 111.76-21.07 4.5438-43.261-1.3369-64.673-2.4573-4.5127-0.6536-11.674-0.4329-12.514-6.346-2.0229-22.097 1.4944-44.848-4.8233-66.479-3.299-6.7223-13.911 0.84-17.552-5.0421 5.073-9.8347 6.3199-22.627 13.727-30.563 15.016-0.9648 30.086-1.4554 45.161-1.5682zm-262.55 5.457c6.349-0.4668 12.826-0.5271 19.175 0.4377 1.4316 6.3178 0.71436 12.916 0.83885 19.389-5.602 0.5602-11.391 1.0275-16.868-0.3419-3.3301-5.1352-10.117-14.972-3.1457-19.485zm466.15 28.594c9.3094 0.2605 18.725 0.9445 27.828 0.2598 10.799-2.7699 18.738 8.5286 22.006 16.558-23.342-0.8091-46.716-1.062-70.057-1.5911-7.3137 0.4358-7.4997-7.781-6.9706-12.947 8.6831-2.3809 17.885-2.5402 27.194-2.2795zm138.28 3.9389c5.5903-0.031 11.178 0.2403 16.718 1.0805 1.774 7.9984 2.1466 16.463 0.6838 24.554-9.3989 1.3072-18.954 0.9995-28.384 0.5015-12.262-0.031-9.2437-18.644-5.758-25.398 5.5553-0.3735 11.15-0.7075 16.74-0.7386zm40.059 42.225c8.8698 0.031 17.866 0.1239 26.642 1.7735 1.0271 8.7142 3.1405 19.019-0.6565 27.048-9.9279-0.1868-20.073 0.1866-29.752-2.1473-0.6847-7.9984-5.7577-23.406 3.7657-26.674zm-604.74 4.0119c4.1393 0.1905 8.371 0.7192 12.355 0.3146 14.503-1.8985 25.552 13.352 28.229 25.708-17.148 1.1204-34.546 0.5903-51.539-1.8372-0.24898-7.4382-3.3909-15.406-0.83885-22.471 3.6101-1.7584 7.6547-1.9048 11.794-1.7142zm449.11 1.7962c12.876 1.5398 14.335 20.414 20.844 30.326 7.4694 11.36-11.3 10.86-17.712 8.0283-8.1851-7.2204-8.961-19.359-11.762-29.287-0.249-2.6454-2.3023-8.807 2.366-8.5891 2.3537-0.5641 4.4245-0.6987 6.264-0.4787zm-222.03 36.636c5.2752 0.4046 9.6397 2.2648 10.262 8.5981 1.8362 10.364 4.6706 21.102 2.243 31.621-8.1228 0.1867-22.193 4.0127-24.901-6.7245-1.8362-10.924-4.9775-22.438-3.328-33.362 4.2637 0.5135 10.448-0.5367 15.724-0.1322zm21.436 2.7171c4.3571-0.9959 8.7133-0.9332 13.07 0.1869 1.8051 11.391 0.6521 23.059 0.8388 34.543 1.4939 8.0918-8.4926 4.2651-11.698 1.3085-1.7429-11.858-2.3045-24.119-2.2111-36.038zm-61.249 0.775c8.8388-0.3734 7.1887 11.702 9.4917 17.616 0.8714 6.2555 5.2917 20.76-6.0679 15.127-1.9918-10.737-5.1978-21.818-3.4238-32.742zm-1332.6 32.555c5.0068-0.047 10.044 0.5461 14.93 1.4954-5.5398 7.625-14.845 11.543-20.634 19.075-20.229 23.933-25.458 56.117-28.726 86.305-10.955 2.3031-22.785 1.6187-33.896 0.3738-5.0107-9.4612 0.7462-21.694 1.5865-32.026 4.2638-30.562 21.446-62.182 51.976-72.888 4.7773-1.6028 9.7551-2.2875 14.762-2.3342zm-61.272 2.2932c2.0696 0.2916 4.092 0.9135 5.9905 1.8783-6.6602 9.6479-14.409 18.548-17.397 30.312-8.8387-0.4046-16.871-5.0119-25.243-7.4083-4.6684-1.9296 0.3728-7.2521 2.4892-9.1817 7.6872-7.4072 16.963-14.189 27.887-15.496 2.0852-0.3579 4.2035-0.3965 6.2731-0.1048zm462.86 5.3294c14.814-0.6536 36.073-0.2791 46.064 11.703-15.872 2.552-31.623-3.7003-46.25-9.0221zm341.87 1.126c-0.54675-0.025-1.1104 0.01-1.696 0.091-6.0065 5.7888-13.167 11.886-15.003 20.351 4.8862 10.488 12.388 19.672 18.924 29.196 19.047 7.7495 31.711-20.696 16.212-32.118-6.1855-4.9893-10.235-17.148-18.436-17.52zm-131.39 0.2189c-0.3997-0.016-0.8094 0.031-1.2354 0.1504-8.4341 3.5169-15.439 12.198-11.954 21.66 6.8158 9.648 14.535 18.613 21.568 28.074 9.0876 0.7158 15.657-10.364 19.298-17.771-0.77806-11.111-13.943-14.13-18.486-23.187-2.623-2.7076-5.3257-8.7645-9.1909-8.9264zm-261.89 4.8324c6.4569 1.3641 12.416 8.3991 18.742 10.476 6.5668 1.9296 2.7713 9.3038 1.4953 13.754-3.5479 3.3612-13.133 2.3976-10.581 9.7425 0.093 6.6601 7.8425 5.6956 11.297 9.5236 0.5602 5.4152 1.1181 13.132-6.1956 13.754-8.7765 1.6184-9.7064 12.822-16.367 16.494-14.192-3.1745-28.854 0.7463-43.078-2.1792 12.574-23.591 26.053-46.744 38.035-70.645 2.2953-1.1983 4.4992-1.3756 6.6515-0.921zm1097.6 4.3766c13.943 1.3694 15.842 21.691 5.0422 28.662-14.378-0.3735-19.639-24.118-5.0422-28.662zm137.31 0.3328c3.3574 0.3424 6.6943 1.6412 9.2775 3.5241 2.7076 8.3097 0.3135 18.112-5.4753 24.554-13.32 3.6413-20.605-16.775-13.198-25.863 2.6609-1.9452 6.0386-2.558 9.3959-2.2157zm58.938 2.3479c11.912 2.2969 12.352 23.055 1.5683 29.373-13.134-1.3383-17.958-22.689-7.3764-29.132 2.1708-0.5213 4.1064-0.5699 5.8081-0.2416zm-1131.9 1.6458c3.4662-0.078 6.9519 0.2773 10.344 0.9619-0.4979 6.349-7.4046 8.5906-10.672 13.321-15.032 18.02-17.182 42.2-23.251 64.017-5.6954 20.665-9.5209 41.864-16.057 62.28-43.042 2.4275-87.081 1.1519-130.37 0.3738 6.5046-26.547 17.305-51.854 25.895-77.716 10.333-3.299 21.876-2.0529 32.738-2.6442 5.7576 7.905-6.4109 18.425-2.1472 26.237 17.366 1.2137 34.793 0.1853 52.191 0.1231 3.6725-7.5317-3.4855-16.338 1.6184-23.465 4.8863-5.1663 15.533 1.5876 17.712-6.6287 5.4776-20.541 10.986-44.787 31.776-55.213 3.3145-1.0582 6.7594-1.568 10.226-1.6458zm-119.5 16.772c7.6872-2.7387 5.8854 7.7522 8.0329 12.14 0.1867 6.5978 10.3 7.6245 9.1178 14.347-8.4964 1.8051-17.894 5.1654-26.36 3.018-0.6224-10.706 3.5138-20.698 9.2091-29.506zm1548.4 34.329c0.5602 17.429 0.1855 34.89 1.0257 52.318-4.9795 1.0892-10.051 0.1546-14.844-0.9346-0.4979-17.117-0.9365-34.265 0.059-51.32 4.5439-0.2179 9.1216-0.2506 13.759-0.064zm-32.806 0.3101c3.8281-0.2179 5.9468 1.4958 6.3825 5.106 1.5873 13.32 1.0278 26.796 1.4635 40.21 1.3382 8.0295-9.7438 5.6962-13.385 2.3661 0.1245-15.063-0.2164-30.129-0.1231-45.161 1.4005-0.6224 4.2617-1.8986 5.6622-2.521zm-53.002 2.7399c10.893 0.1867 21.818-0.4687 32.71 0.465 5.5086 3.1744 9.3998 14.006 3.9845 18.176-10.052 0.249-20.698 1.7456-30.408-0.9619-2.3653-5.7888-4.4817-11.704-6.2868-17.68zm-2397 13.704c10.397-0.6352 8.0834 17.202 6.15 25.726-17.055 5.6642-10.424-14.13-11.42-24.244 2.0424-0.9259 3.7848-1.3909 5.2702-1.4817zm79.116 0.2371c10.788-0.031 21.571 0.3913 32.168 1.5273 0.498 7.8116 0.3703 15.654-0.1276 23.497-21.319-3.6413-43.102 0.1263-64.359-2.6122-1.8985-6.7536-2.2109-14.597 0.1231-21.226 10.613-0.6691 21.408-1.1542 32.195-1.1853zm-60.11 1.0577c4.8862-0.8092 9.8338-0.6502 14.689 0.3146 1.3071 16.277 1.0254 32.646 0.6519 48.954-3.7969 3.1122-17.021 5.6638-16.057-2.708 0.062-15.499-1.1205-31.155 0.7158-46.56zm2268.2 0.424c4.7461 0.078 9.4864 0.4499 14.124 1.2902 1.8051 11.671 4.0439 23.373 4.9465 35.2-8.6832 1.3071-18.236 2.0214-26.483-1.4954-4.7929-10.115-6.411-21.505-9.8656-32.118 0.7781-0.5913 2.3312-1.8067 3.1092-2.398 4.6684-0.3424 9.4231-0.5565 14.169-0.4787zm-2161.8 0.2006c14.005-1.8051 8.7776 15.75 8.8398 24.308-15.063 5.851-11.454-16.092-8.8398-24.308zm1074.8 1.2309c7.6832 0.015 15.363 0.4946 22.895 1.5683 3.4546 5.7886-1.1218 13.009-2.9268 18.86-15.592 0.2801-31.277 0.7781-46.807-0.7158-1.525-5.7264-0.841-14.69 3.9207-18.486 7.5471-0.7936 15.234-1.2419 22.918-1.2263zm-1053.6 1.3814c5.2908 1.0581 12.881-1.7719 16.554 2.9587 0.031 6.9403 1.403 14.442-1.3358 21.04-5.2285-0.4046-11.422 0.7769-15.81-2.7399-0.6224-7.0647-1.4302-14.412 0.5927-21.258zm1095.8 0.971c2.0614 1.1686 2.6208 5.7361 2.0606 7.8368-2.4587 14.41-6.6926 28.51-9.9294 42.795-11.017 1.9607-5.1644-11.36-4.2307-17.087 3.7347-10.706 2.5834-24.679 9.5236-33.362 1.0348-0.5835 1.8887-0.5718 2.5758-0.1823zm-366.37 0.091c4.1392-0.093 8.4023-0.7809 12.542 0.2462 1.774 6.5045-3.8884 12.668-5.8491 18.737-9.7413-1.1827-26.05 2.8335-27.139-11.078-1.8985-10.675 13.849-5.9446 20.447-7.9052zm-691.16 1.1443c12.82 0.102 25.901 2.9452 38.459 4.2991 0.2179 7.8117 0.189 15.655-0.091 23.529-16.868-1.8985-34.392-1.6191-50.7-6.1318-0.7158-6.9092-0.6539-13.847-0.3738-20.725 4.1859-0.7314 8.4323-1.0051 12.706-0.971zm1099.7 3.1274c3.6141 0.673 6.464 2.6522 6.6196 7.3673 0.31122 5.104 5.3532 12.261 0.90267 16.307-6.349-1.2138-12.668-2.5545-18.737-4.7641-2.7076-5.6954-0.40459-12.448 0-18.455 3.2212-0.498 7.6009-1.1289 11.215-0.4559zm16.891 0.9847c3.9213 1.0271 11.017-1.9272 12.574 3.1457 2.5209 17.802 4.3235 35.695 7.4356 53.403 2.2408 4.8551-8.4315 6.5974-8.1514 1.7735-2.2097-19.763-10.177-38.591-11.858-58.323zm-1058.5 0.1687c9.9648 0.9663 8.0502 16.132 6.8248 24.792-5.1352 0.9337-10.554 0.8101-15.564-0.6838 1.3382-7.2826-3.8252-19.858 3.7064-23.592 1.9451-0.5019 3.6095-0.6532 5.033-0.5152zm547.35 1.9467c5.8938 0.4163 11.79 1.4667 17.47 2.4937 0.3735 6.1933 0.8099 13.194-2.3022 18.765-13.009-1.0581-26.208-0.5607-39.061-2.8949 0.4357-5.9444 0.502-13.943 6.4463-17.055 5.6643-1.5094 11.553-1.7247 17.447-1.3084zm-528.73 0.8753c10.146 0.8714 20.606 0.4024 30.44 3.1411 1.276 7.3138 4.0125 16.93-0.096 23.31-9.928-0.6225-19.949-0.9019-29.784-2.4892-2.2096-7.6561-1.9924-16.181-0.5607-23.962zm2148.6 1.1169c8.3408-0.5602 16.807-0.6852 25.179 0.155 1.8051 5.4465 2.1166 11.301 1.8054 17.028-8.8699 0.6847-17.805-0.127-26.519-1.7142-1.8673-4.1704-7.5609-14.099-0.465-15.468zm-2098.2 2.2294c2.8788 0.5174 5.0051 2.0505 4.4449 6.0497-1.9295 15.468 0.4958 31.156-1.5272 46.592-4.1082 1.027-8.0609 0.654-11.858-1.0577 0.3735-17.18 0.3779-34.39-0.027-51.539 2.4587-0.062 6.0886-0.5632 8.9674-0.046zm22.936 2.5347c2.3536 0.109 4.7113 0.4818 7.0299 0.8708 2.7077 7.7495 1.7103 16.338 0.8389 24.368-4.8863 1.4005-10.148 0.7786-14.785-1.0576-0.3735-7.8429-0.3401-15.653-0.091-23.465 2.303-0.6691 4.6534-0.8247 7.0071-0.7158zm17.766 3.6107c11.951-1.525 24.526 1.6792 36.695 2.4573 1.8362 7.2826 0.9643 15 0.155 22.407-11.982 1.9296-24.061-1.1185-36.043-1.8965-2.6142-7.2515-0.8069-15.405-0.8069-22.968zm318.24 5.3476c7.43-0.1895 15.111 1.7458 22.58 1.3723 1.5873 7.7806 1.3357 15.81 0.4331 23.684-10.83-1.805-22.437-0.2804-32.77-3.6107 0.062-6.8469 0.2779-13.847 2.4253-20.383 2.4042-0.7003 4.8541-0.999 7.3308-1.0623zm36.49 1.6549c9.4611 2.2098 2.7394 18.859 3.7976 26.889-0.9648 8.7143 7.0984 27.541-6.7199 27.199-3.1434-13.102-0.2499-26.669-1.8373-39.927 0.2179-4.8239-2.1496-13.164 4.7596-14.16zm-205.3 0.8435c6.0261 0.8364 10.104 3.98 7.4585 12.601-9.4923-0.5602-19.795-4.8875-26.611-11.361 5.1508-0.6069 13.126-2.0765 19.152-1.24zm220.24 1.1488c14.565-3.828 11.673 12.134 11.393 21.222 1.0581 6.5356-7.9049 4.2977-11.484 3.7064-1.7117-8.1851-1.5271-16.774 0.091-24.928zm-720.6 0.018c7.8488 0.7901 7.1842 14.902 3.9708 20.675-11.017 1.7118-13.818-14.126-7.8733-20.132 1.4861-0.494 2.7812-0.6553 3.9025-0.5424zm1214.9 0.7248c4.2015 4.4817-0.687 11.517-0.81149 16.964-13.258 3.7036-28.166 1.4322-42.015 1.2765-2.7699-4.1081-6.6273-10.457-2.7992-15.063 7.158-2.4897 14.874-1.8683 22.343-2.553 7.7495-0.3424 15.502-0.8736 23.283-0.6246zm-1133.8 0.1869c9.5663-0.1048 19.068 0.3132 28.234 2.7719 0.3734 5.4153 0.5596 10.955-0.5608 16.339-20.603 0.8714-41.33 0.6826-61.933 0.091-1.3071-6.3178-4.1687-18.735 5.6349-18.828 9.43 0.3579 19.059-0.2689 28.626-0.3739zm326.32 0.1277c8.8699-0.1556 17.864 0.092 26.579 1.9284 1.7428 4.6684 2.2395 10.394 0.1231 15.063-10.115-0.3424-20.23-0.6223-30.344-0.5289-2.552-5.2285-1.8971-13.474 3.6426-16.462zm468.86 1.9922c0.1868 6.0689-2.7395 11.764-4.7002 17.397-9.4301 6.8158-12.418-12.107-7.7183-17.242 4.1081-0.7469 8.2481-0.8085 12.418-0.155zm-746.16 0.8252c4.3911 2.6376 3.2757 12.401 1.6184 17.629-11.609 6.4734-14.471-13.477-8.0283-17.461 2.871-1.136 4.9461-1.0479 6.4099-0.1687zm27.855 0.5106c7.3137 0 2.5825 9.7421 3.2049 14.037 2.3031 10.706-10.081 7.0012-16.244 5.6941-2.8632-5.6331-1.5893-12.51-0.6245-18.455 4.5126-0.8403 9.0881-1.2142 13.663-1.2765zm1104.9 2.088c9.7102-2.4275 10.24 16.246 10.8 23.684-13.476 1.4628-10.769-15.094-10.8-23.684zm-1089.3 0.62c15.686 0.1556 31.248 2.8945 46.902 3.9526 0.6847 7.2203 5.4446 23.653-7.2533 20.479-13.974-2.3964-28.227-2.5496-42.138-5.2884 0-5.8198-3.2996-16.498 2.4892-19.143zm1112.9 0.5972c10.804-0.8629 11.548 16.777 12.555 25.981-16.184 4.5128-16.247-13.444-17.835-24.399 1.984-0.957 3.7358-1.4587 5.2793-1.582zm-498.52 2.2476c6.6252 0.463 11.816 2.9312 11.411 11.63-0.529 3.4235 3.0781 10.329-2.2748 11.17-9.8658 0.529-19.854-0.2176-29.533-2.1473-2.0229-5.7265-5.446-17.148 0.3738-20.26 5.3375 0.6846 13.398-0.855 20.023-0.3921zm-555.08 3.132c12.76-2.5831 19.326 7.4675 15.747 19.138-5.0729 0.4669-12.322 2.894-15.902-1.9922-0.3735-5.7266-0.2496-11.451 0.155-17.146zm27.572 2.6761c10.021-0.4046 20.073 0.5927 30.126 0.5927 2.4898 5.6331 3.1473 14.596-0.5562 19.731-9.8035-0.3423-19.671-0.9681-29.35-2.6487-0.2178-5.9132-0.281-11.793-0.2188-17.675zm73.887 6.2457c6.8391 1.8207 9.4762 9.8039 6.4418 18.277-12.947 3.6102-17.337-6.906-14.63-17.83 3.1589-0.9726 5.9081-1.0536 8.1879-0.4468zm16.339 3.1229c11.453-1.7428 24.148 0.9316 35.633 3.3281 0.3112 5.7576 0.3118 11.549 0.032 17.338-11.826-0.6224-23.653-1.7773-35.386-3.3645-0.4357-5.7576-0.4336-11.544-0.2781-17.301zm311.32 4.1395c9.9902 0.5914 19.979 1.2118 29.907 2.6123 2.6143 6.1622 1.6491 13.321 0.3419 19.763-10.706-1.9607-21.939-1.1817-32.396-3.7337-0.3112-5.851-3.6415-14.907 2.1473-18.642zm1474.4 0.3283c13.441 0.058 26.886 0.4339 40.269 0.9163 7.874 9.4301 15.626 20.04 19.859 31.648-19.42 3.9214-42.328-0.4316-63.087 1.0622-20.198 4.046-28.849-18.833-37.283-32.651 13.367-0.7781 26.801-1.034 40.242-0.9756zm-1411.4 3.0134c9.5205 0.5298 11.767 22.236 1.5545 20.684-11.391 2.4275-5.7878-12.949-6.0679-19.485 1.6417-0.9182 3.1533-1.2747 4.5134-1.1991zm46.278 8.5161c10.799 0.9337 21.725 1.056 32.368 3.1412 0.3423 4.7306 0.376 9.5222 0.2826 14.315-9.9591 0.2179-19.887-0.4978-29.816-0.7157-1.7739-5.4153-2.7111-11.076-2.8356-16.74zm-610.84 4.7596c13.414-0.7469 26.89-0.3119 40.242 0.8707 293.11 18.487 584.54 55.678 875.07 98.19 257.04 34.234 513.58 72.702 771.21 101.61l-0.83884 2.5211c-21.443 2.2097-42.948-0.9295-64.422-1.0851-78.833-2.6142-157.7-5.0745-236.5-8.6847-170.83-9.6168-341.2-27.325-510.35-53.467-70.492-12.262-141.51-21.226-212.16-32.678-123.4-19.171-246.68-39.187-369.95-59.043-96.852-17.958-194.95-28.068-291.93-45.434zm2319.5 8.0009c17.21-0.2178 16.338 23.464 4.9783 30.062-11.36-3.0811-15.591-22.592-4.9783-30.062zm99.189 4.0894c12.255 0.368 11.244 23.968-0.6839 28.462-10.799-1.8363-16.277-21.598-5.3841-27.076 2.2992-1.0193 4.3173-1.4385 6.068-1.3859zm-1261.4 20.15c4.9057 0.3618 9.821 0.8917 14.707 0.9073 5.6019 3.081 2.304 11.203 3.2688 16.462-10.862-0.1556-21.726-1.3687-32.432-3.205-0.31122-4.6994-0.3424-9.4005-0.18692-14.069 4.8395-0.6535 9.7377-0.4574 14.643-0.096zm37.488 2.8676c8.6831 0.5602 17.458 0.4631 26.141 1.6458 3.5168 4.3571 0.93513 10.99 1.4953 16.312-6.8157 0.1245-14.036 2.1141-20.634 0.091-3.2678-5.5397-6.7224-11.544-7.0025-18.049zm-29.464 23.579c2.6764 0.035 5.3441 0.4134 7.8961 1.2537 1.5872 6.7847 2.0244 13.789 2.2111 20.73-5.3841 0.3734-10.799 0.1543-16.152-0.5927-3.548-6.0066-1.8077-13.879-1.9011-20.57 2.5832-0.5446 5.2697-0.8556 7.9463-0.8206zm43.096 2.0014c15.686-3.579 16.9 11.576 16.558 23.278-15.406 8.4341-21.6-11.981-16.558-23.278zm1393 81.199c6.2167-0.1556 11.968 1.0757 14.972 5.8218-0.529 17.771 2.2697 36.319-0.8115 53.654-8.7453 0.6847-21.631 5.2584-27.326-3.6426-1.6805-17.646-9.6774-35.76-4.6045-53.344 4.8707-0.7936 11.554-2.3336 17.771-2.4892zm48.594 0.4103c5.6137 0.054 11.269 0.5989 16.731 1.1124 5.0729 11.546 0.4986 25.212 1.4634 37.63-1.0582 6.5045 2.1811 15.155-2.7673 20.228-10.333 1.0893-20.823 0.9652-31.156 0.3739-2.2097-18.922-0.841-38.407-0.7477-57.516 5.2908-1.4472 10.862-1.8826 16.476-1.8282zm-2562.2 254.42c-0.5913 11.017 1.1827 22.22-0.7158 33.175-1.4938 3.3924-9.2432 9.3365-2.3341 11.484 6.8469 0.4357 13.784 0.062 20.538 1.6184-2.552 3.2367-5.7279 6.5369-9.9294 7.4083-31.745 3.9525-62.864 11.605-94.297 17.456l-0.4058 2.3341c18.144 2.3031 36.1 5.9453 54.306 7.9372 0 0.9336 0.064 2.8002 0.064 3.7337-33.488 6.5668-67.722 8.6831-100.9 17.055l-0.032 2.366c19.949 5.1975 39.248 12.635 59.166 17.926 0.3423 0.8714 0.9934 2.6481 1.3358 3.5195-28.166 9.2122-56.736 17.461-85.804 23.406-2.8632 1.4316-10.27 0.2471-9.3367 5.1334 22.159 6.38 43.293 15.652 63.989 25.767-0.249 0.9648-0.7486 2.9293-0.9665 3.9252-40.148 12.636-81.26 22.064-122.62 29.565-4.7306-0.1245-8.1243 6.7858-2.2111 8.124 77.214 7.6561 154.77 13.008 232.46 11.981 248.95 1.6495 497.96 0.06 746.94 0.807 72.608-1.5873 144.72 7.4416 216.55 16.654l0.92999 2.2384c-56.705 5.5708-113.5 11.05-169.8 19.827l-0.4058 2.4253c100.34 8.2786 201.14 10.643 301.11 23.123 3.0189 0.8713 8.1575 0.4052 8.9356 4.5133-70.025 14.783-141.89 17.492-212.16 30.563-0.3735 0.9025-1.09 2.6762-1.4634 3.5787 40.272 1.4005 80.423 6.1332 120.76 6.0087 27.823 0 53.625 11.42 80.484 16.959 26.298 8.0607 53.437 13.445 79.175 23.342 0.34235 0.9336 1.0572 2.8001 1.3996 3.7337-47.461 12.854-96.82 15.628-145.37 22.257-317.8 31.372-227.33 35.753 37.876 45.407 21.257 4.6993 43.136 1.6792 64.641 4.0757 22.688 2.6142 45.592 3.0172 68.124 6.9387v2.5211c-50.511 15.686-103.11 22.875-155.11 31.589-3.4857 0.9025-8.373 0.5615-8.8398 5.261 100.34 5.0729 200.93 2.5218 301.39 3.2687 64.33 0.7781 128.5-4.4184 192.58-9.1179l-0.83884-2.3341c-35.137-8.5275-71.428-10.738-106.91-17.429-2.6454-0.031-9.3966-2.6789-3.8568-4.7641 96.603-37.699 355.72-23.021 246.33-50.855-58.199 3.0812-116.55 0.7805-174.84 1.7142-64.921 1.5561-128.63-14.036-190.97-30.344-2.3964-1.2138-13.287-2.7715-7.4356-6.3506 73.853-14.628 148.89-22.378 223.33-33.426 196.14-27.484 573.83-16.862 149.48-42.138-78.646-7.6561-157.79-2.1491-236.62-6.3506-41.144-3.0499-82.319-5.7552-123.37-9.9567l-0.65192-2.2704c158.29-9.7101 316.95-13.384 475.58-14.256 48.582-1.6806 97.413 0.7456 145.78-4.5452l-0.123-2.6442c-73.449-17.148-149.27-19.297-223.8-28.603-19.669 0.6224-38.745-6.3143-58.446-4.1669 1.8985-3.4546 5.6635-4.1734 9.3048-3.8933 52.846 0.1245 105.69-0.031 158.57-0.5289 115.65-3.7035 231.4-1.0244 347.08-2.7673 23.155-2.8321 75.825 7.1432 69.684-5.4479-1.6618-3.4068-5.8814-3.9831-9.3049-4.1076-89.103-6.878-177.93-17.09-267.19-22.038-111.88-3.8592-224.02 0.7491-335.81-4.7595l0.93462-2.0835c35.448-6.1 71.642-6.9749 107.5-9.8382 136.75-9.1499 273.78-12.978 410.85-13.289 83.999-2.4276 168.09 0.7479 252.03-2.8311 92.958-5.8105 305.21 6.7081 279.33-11.201-170.52-5.3841-342.01-6.1318-510.94-33.239-0.3424-0.9025-0.9972-2.6762-1.3084-3.5787 63.925-5.9755 127.98-12.108 192.28-12.45 76.456-4.4785 292.95 2.7745 267.4-9.5875-98.166-19.427-224.27-10.468-52.469-23.155 35.013 0.4046 117.41 7.4506 105.01-2.7673-291.57-28.082 173.74-23.045-39.339-55.774-9.15-1.1515-12.264-9.7068-13.882-17.456-146.9 0.1245-293.82-0.1251-440.72 0.155-116.24 1.7118-232.45-0.8114-348.7-0.096-607.66-0.3424-1215.3 0.5006-1823-0.4331zm760.14 166.86c53.083 0.1363 106.15 1.419 159.12 5.0604 50.916 0.9959 101.65 5.0415 152.44 8.2471l0.59267 2.1473c-155.77 16.619-312.87 20.634-469.39 29.255-98.876 4.6683-196.88-13.317-295.57-15.496-45.563-3.7347-91.312-2.2118-136.97-3.6746-47.244-2.9566-94.864 1.244-141.95-3.2687l-0.62-2.3616c127.38-5.4152 254.77-13.291 382.28-17.306 63.614-0.6846 127.23 0.2785 190.84-0.7796 53.048-0.9492 106.15-1.9597 159.23-1.8235z" stroke-width="3.1122" fill="#BBBBBB"/> </g> </g> </g> </svg>